<svg viewBox="0 0 960 960" fill="currentColor" width="960" height="960" xmlns="http://www.w3.org/2000/svg" xmlns:xlink="http://www.w3.org/1999/xlink">
    <path d="M164.8 244.535c-21.941 5.749-31.473 11.127-47.261 26.665-16.754 16.488-25.742 28.56-62.581 84.044-30.574 46.048-42.141 66.674-48.875 87.156C2.462 453.411 2.4 454.801 2.4 524.8c0 63.26.317 72.347 2.84 81.484 6.554 23.735 21.682 45.419 41.299 59.196 8.899 6.249 21.869 12.123 60.353 27.333 56.562 22.354 66.229 25.342 85.908 26.554 19.543 1.203 663.764-44.514 680-48.256 14.268-3.289 34.258-12.927 45.754-22.058 16.271-12.927 28.998-31.524 36.303-53.053l4.343-12.8.459-116.219c.517-130.819.648-128.997-11.007-153.076-8.568-17.701-26.829-36.548-44.171-45.589-24.888-12.975.682-11.499-352.481-20.355-173.8-4.359-328.24-7.903-343.2-7.876-24.447.043-28.9.493-44 4.45m384.8 43.498c209.116 5.216 317.354 8.48 321.6 9.696 16.656 4.771 31.248 15.993 39.823 30.625 8.544 14.58 8.922 20.15 8.918 131.646-.003 57.608-.682 107.088-1.555 113.118-3.963 27.402-24.984 51.074-51.746 58.272-5.038 1.356-136.788 11.37-339.059 25.774-329.163 23.44-330.881 23.545-343.2 20.969-6.81-1.424-34.544-11.366-61.633-22.093-47.251-18.712-49.638-19.862-58.771-28.318-14.516-13.439-19.105-24.076-21.056-48.804-.856-10.845-1.282-41.678-.946-68.518.69-55.188.183-52.453 15.338-82.638 22.199-44.211 62.431-102.925 88.174-128.68 10.641-10.646 13.308-12.448 21.951-14.837 14.443-3.993 26.056-5.103 47.668-4.56 10.612.267 161.134 4.024 334.494 8.348m-346.825 20.969c-9.669 2.18-17.926 7.143-24.711 14.851-12.145 13.797-11.664 7.254-11.664 158.671 0 132.264.066 135.131 3.29 143.748 4.316 11.536 16.03 22.343 27.984 25.818 8.098 2.355 24.615 1.427 341.818-19.205L872.8 611.206l9.933-4.87c11.82-5.796 20.084-14.827 23.94-26.161 2.55-7.495 2.746-17.023 2.348-114.575-.265-65.231-1.062-108.876-2.058-112.8-3.702-14.585-14.025-26.104-27.616-30.82-5.334-1.851-61.674-3.257-304.147-7.59-163.68-2.925-313.08-5.64-332-6.032-18.92-.393-37.111-.103-40.425.644M545.6 333.7c297.314 5.294 324.454 5.997 329.509 8.544 3.03 1.527 6.99 4.758 8.8 7.181 3.214 4.302 3.319 6.896 4.509 111.09 1.089 95.352.949 107.403-1.315 113.439-2.986 7.964-9.726 14.116-17.975 16.408-7.583 2.107-647.65 43.669-659.906 42.85-6.974-.466-10.18-1.549-13.352-4.513-9.089-8.491-8.67-1.354-8.67-147.583V346.073l3.638-5.398c5.729-8.501 13.14-12.669 22.599-12.71 4.489-.019 153.963 2.562 332.163 5.735M262.724 370l.476 10 7.6.488 7.6.487V360h-16.153l.477 10m23.676.4v10.4h14.4V360h-14.4v10.4m110.973-4.4c.545 3.3 1 7.62 1.009 9.6.016 3.197.823 3.6 7.218 3.6h7.2V360h-16.419l.992 6m21.827 3.6v9.6h14.4V360h-14.4v9.6m20.822-3.688c.042 11.658 1.151 13.288 9.044 13.288h7.094l-.48-9.2-.48-9.2-7.6-.488-7.6-.487.022 6.087M462.4 369.6v9.6h14.4V360h-14.4v9.6m161.6 0v9.6h7.2c7.962 0 8.252-.62 6.173-13.2-.947-5.729-1.272-6-7.182-6H624v9.6m19.2-.092v9.692h14.56l-.48-9.2-.48-9.2-6.8-.492-6.8-.492v9.692m19.2.092v9.6h14.8l-1-5c-.55-2.75-1-7.07-1-9.6 0-4.3-.417-4.6-6.4-4.6h-6.4v9.6m19.2 0v9.6h12.8V360h-12.8v9.6m19.2 0v9.6h12.8V360h-12.8v9.6m19.2 0v9.793l6-.496 6-.497v-17.6l-6-.497-6-.496v9.793m36.8 0v9.6H768V360h-11.2v9.6m17.6 0v9.793l6-.496 6-.497v-17.6l-6-.497-6-.496v9.793m17.6 0v9.6h12.8V360H792v9.6m17.92-.4.48 9.2 6 .497 6 .496V360h-12.96l.48 9.2m17.6 0 .48 9.2 6 .497 6 .496V360h-12.96l.48 9.2m17.597-.102.483 9.302h11.2v-17.6l-6.083-.502-6.083-.501.483 9.301M483.2 399.2v10.4h14.4v-20.8h-14.4v10.4m62.4.171c0 8.982.38 10.425 2.531 9.6 1.392-.534 4.272-.971 6.4-.971 3.662 0 3.869-.513 3.869-9.6v-9.6h-12.8v10.571m19.2-.971v9.6h14.4v-19.2h-14.4v9.6m59.2 0v9.6h14.4v-19.2H624v9.6m19.773-3.6c.545 3.3 1 7.62 1.009 9.6.016 3.13.853 3.6 6.418 3.6h6.4v-19.2h-14.819l.992 6m113.027 2.8v8.8h12.8v-17.6h-12.8v8.8m17.6 0v8.8h12.8v-17.6h-12.8v8.8M240 400.8v10.4h16v-20.8h-16v10.4m22.4-5c0 2.97.45 7.65 1 10.4.937 4.686 1.44 5 8 5h7v-20.8h-16v5.4m24 5.088v10.487l7.6-.487 7.6-.488.476-10 .477-10H286.4v10.488m89.924-.488.476 10 7.2-.546c3.96-.301 7.236-.661 7.279-.8.044-.14-.203-4.394-.548-9.454l-.627-9.2h-14.257l.477 10m22.076-.4v9.6h14.4v-19.2h-14.4v9.6m64 0v9.6h14.4v-19.2h-14.4v9.6m366.4 24v9.6H840v-19.2h-11.2v9.6m-126.933-6.933c-.587.586-1.067 4.906-1.067 9.6v8.533h12.8V416h-5.333c-2.934 0-5.814.48-6.4 1.067m54.933 7.783c0 9.657 1.66 11.485 8.804 9.692 3.653-.917 3.996-1.755 3.996-9.772V416h-12.8v8.85m17.6-.05v8.8h12.8V416h-12.8v8.8m19.2 0v8.8h11.2V416h-11.2v8.8m17.6 0v8.8h11.2V416h-11.2v8.8m-245.42-5.891c-.445.72-.383 5.437.138 10.483l.947 9.173 5.767-.482 5.768-.483.476-10 .477-10h-6.382c-3.51 0-6.746.589-7.191 1.309m59.82 8.291v9.6h12.8v-19.2h-12.8v9.6m19.2 0v9.6h12.8v-19.2h-12.8v9.6m19.2 0c0 10.261.662 10.88 9.2 8.592 3.168-.849 3.6-1.999 3.6-9.579V417.6H664v9.6m19.2-.8v8.8H696v-17.6h-12.8v8.8m-220.476 2.8.476 10 6.8.492 6.8.492V419.2h-14.553l.477 10m20.476-.4v9.6h14.4v-19.2h-14.4v9.6m62.4.092v9.692l6.8-.492 6.8-.492.48-9.2.48-9.2H545.6v9.692m-254-6.935-5.2.646v9.404c0 5.172.572 9.758 1.272 10.19.7.433 4.3.38 8-.116l6.728-.902v-10.19c0-11.092.75-10.465-10.8-9.032m84.4 8.493c0 10.875 1.285 12.165 10.412 10.453l5.588-1.048V420.8h-16v9.65m22.4-.05v9.6h14.4v-19.2h-14.4v9.6M264 432.888v10.487l7.6-.487 7.6-.488.476-10 .477-10H264v10.488m565.867 9.779c-.587.586-1.067 4.906-1.067 9.6v8.533H840v-9.6c0-9.475-.059-9.6-4.533-9.6-2.494 0-5.014.48-5.6 1.067M846.4 451.2c0 8.397.385 9.6 3.069 9.6 6.881 0 8.131-1.626 8.131-10.571V441.6h-11.2v9.6m-144 3.297v9.696l6-.496 6-.497.48-9.2.48-9.2H702.4v9.697m17.6-.897v8.8h12.8v-17.6H720v8.8m-257.6 5.6v9.6h14.4v-19.2h-14.4v9.6m21.429-7.069c.534 1.392.971 5.712.971 9.6v7.069h6.306c3.468 0 6.578-.54 6.911-1.2.333-.66.306-4.98-.06-9.6l-.666-8.4h-7.217c-5.923 0-7.042.454-6.245 2.531m-107.2 1.6c.534 1.392.971 6.072.971 10.4 0 7.628.143 7.869 4.669 7.869 8.749 0 9.731-1.148 9.731-11.371V451.2h-8.171c-6.794 0-8.008.427-7.2 2.531M398.4 460.8v9.6h8c8.865 0 9.086-.418 6.973-13.2-.97-5.867-1.147-6-7.982-6H398.4v9.6M264 463.2v10.4h16v-20.8h-16v10.4m22.4 0v10.4h16v-20.8h-16v10.4m544.4 6.625c-1.254.528-2 4.11-2 9.605v8.763l6-.496 6-.497v-8.8c0-8.238-.256-8.82-4-9.109-2.2-.169-4.9.071-6 .534m15.6 7.508c0 4.694.356 8.89.791 9.325.435.435 2.955.473 5.6.085 4.663-.685 4.809-.968 4.809-9.325V468.8h-11.2v8.533m-138.8-4.07c-5.163.536-5.2.602-5.2 9.238v8.699h12.8v-8.706c0-4.788-.54-8.945-1.2-9.238-.66-.293-3.54-.29-6.4.007m13.467-.196c-.587.586-1.067 4.906-1.067 9.6v8.533h12.8V472h-5.333c-2.934 0-5.814.48-6.4 1.067M545.6 486.4v9.6H560v-19.2h-14.4v9.6m20.8.092v9.692l6.8-.492c7.564-.547 8.83-3.035 6.866-13.502-.946-5.041-1.421-5.39-7.339-5.39H566.4v9.692m-98.8-6.99c-3.252.651-3.6 1.646-3.6 10.301v9.581l6.8-.492 6.8-.492v-9.6c0-10.298-.888-11.123-10-9.298m17.2 9.298c0 11.203.064 11.267 9.4 9.4 4.919-.984 5-1.152 5-10.4v-9.4h-14.4v10.4m-80.4-7.62c-5.367.548-6 1.088-6 5.117 0 2.476.45 6.753 1 9.503.939 4.696 1.431 5 8.076 5h7.077l-.477-9.873c-.51-10.585-.6-10.675-9.676-9.747m-26.8 10.912v10.492l6.8-.492 6.8-.492.476-10 .477-10H377.6v10.492m-88.533-7.825c-.587.586-1.067 5.266-1.067 10.4V504h14.4v-20.8h-6.133c-3.374 0-6.614.48-7.2 1.067M264.324 494.8l.476 10 7.6.488 7.6.487V484.8h-16.153l.477 10m566.378 2.54c-1.385.904-1.928 4.035-1.6 9.215.495 7.804.527 7.845 6.098 7.845h5.6v-8.8c0-8.209-.268-8.828-4-9.214-2.2-.228-4.944.201-6.098.954m15.698 7.46v8.8h12.8V496h-12.8v8.8m-65.2-5.93c-5.171.53-5.2.581-5.2 9.328v8.795l6-.496c5.969-.494 6.003-.537 6.497-8.32.574-9.036-.209-10.033-7.297-9.307m-22.8 10.117c0 9.368.154 9.745 3.6 8.821 1.98-.53 4.5-.974 5.6-.986 1.355-.015 2-2.86 2-8.822v-8.8h-11.2v9.787m-56 1.413v9.6h12.8v-19.2h-12.8v9.6m19.2-.358v9.243l6.4-.611 6.4-.61V500.8h-12.8v9.242m-75.733-6.575c-.587.586-1.067 4.906-1.067 9.6v8.533h14.4v-19.2h-6.133c-3.374 0-6.614.48-7.2 1.067M625.92 513.2l.48 9.2h12.8l.48-9.2.48-9.2h-14.72l.48 9.2m-77.653-6.533c-.587.586-1.067 5.266-1.067 10.4 0 8.804.219 9.333 3.869 9.333 7.877 0 8.931-1.342 8.931-11.371V505.6h-5.333c-2.934 0-5.814.48-6.4 1.067M566.4 515.2v9.6h14.4v-19.2h-14.4v9.6m-102.4 4c0 9.725.234 10.399 3.6 10.378 9.61-.058 10.8-1.31 10.8-11.365V508.8H464v10.4m20.8-.8v9.6h14.4v-19.2h-14.4v9.6m-81.2-6.871c-3.251.626-3.6 1.614-3.6 10.182v9.489h14.4v-10.4c0-11.283-.065-11.339-10.8-9.271m-26 10.963v10.492l6.8-.492 6.8-.492.476-10 .477-10H377.6v10.492m-113.031-4.866c-.512 1.334-.46 6.197.116 10.806l1.047 8.381 7.134-.568 7.134-.567V515.2h-7.25c-5.003 0-7.539.752-8.181 2.426M288 525.688v10.487l7.6-.487 7.6-.488.476-10 .477-10H288v10.488m543.6-1.385c-2.054.537-2.8 2.37-2.8 6.883 0 9.333 1.236 11.214 7.371 11.214h5.429v-9.6c0-10.214-.807-10.899-10-8.497m-37.351 2.714c-.468 1.219-.625 5.359-.35 9.2.489 6.81.649 6.995 6.501 7.48l6 .496V524.8h-5.65c-3.339 0-5.998.907-6.501 2.217m17.267 6.183.484 8.4 6 .497 6 .496V524.8h-12.967l.483 8.4m-35.516 2v8.8h12.8v-17.6H776v8.8m-91.733-4.533c-.587.586-1.067 4.906-1.067 9.6v8.533h6.45c7.634 0 8.754-1.862 7.231-12.02-1.024-6.824-1.336-7.18-6.312-7.18-2.88 0-5.716.48-6.302 1.067m18.133 7.466c0 4.694.338 8.872.751 9.285.413.413 3.293.454 6.4.091l5.649-.659V529.6h-12.8v8.533m-56 2.667v9.6h12.8v-19.2h-12.8v9.6m18.95.145c.512 9.095.781 9.688 4 8.824 1.897-.509 4.71-.935 6.25-.947 2.325-.018 2.8-1.516 2.8-8.822v-8.8l-6.8-.003-6.8-.003.55 9.751M443.2 549.6V560h14.4v-20.8h-14.4v10.4m20.8-.8v9.6h14.4v-19.2H464v9.6m-61.2-6.897c-2.269.593-2.8 2.529-2.8 10.214v9.483h14.4v-10.4c0-10.324-.032-10.399-4.4-10.214-2.42.102-5.66.514-7.2.917m18.438 8.623c.485 5.35 1.125 9.914 1.422 10.143.297.229 3.6.097 7.34-.294l6.8-.711V540.8h-16.444l.882 9.726m-87.57-5.035c-.507.819-.45 5.499.125 10.4l1.048 8.909H348.8V544h-7.106c-3.908 0-7.52.671-8.026 1.491M288 556v10.4h16v-20.8h-16V556m22.4-.75c0 10.875 1.285 12.165 10.412 10.453l5.588-1.048V545.6h-16v9.65m-65.2-6.921c-3.288.634-3.6 1.585-3.6 10.982 0 11.276.204 11.448 11 9.289 4.973-.995 5-1.056 5-11.2 0-10.113-.037-10.198-4.4-9.982-2.42.12-6.02.53-8 .911m20.4 9.359v10.487l7.6-.487 7.6-.488.476-10 .477-10H265.6v10.488m-46.933-7.821c-1.334 1.333-1.403 13.796-.096 17.202.703 1.831 3.137 2.531 8.8 2.531 7.478 0 7.828-.197 7.811-4.4-.009-2.42-.464-7.1-1.009-10.4-.963-5.824-1.189-6-7.716-6-3.698 0-7.204.48-7.79 1.067"/>
</svg>
