<svg viewBox="0 0 960 960" fill="currentColor" width="960" height="960" xmlns="http://www.w3.org/2000/svg" xmlns:xlink="http://www.w3.org/1999/xlink">
    <path d="M331.2 26.504c-81.4 14.422-149.62 26.612-151.6 27.089l-3.6.868V180.52l11.982 6.94c9.959 5.768 12.114 7.75 12.767 11.74 1.438 8.782 33.073 434.41 32.558 438.036-.446 3.132-2.059 3.82-13.307 5.679-25.902 4.28-32.632 8.145-40.207 23.094-29.5 58.215 2.1 183.76 49.463 196.514 7.428 2 12.012 1.637 40.859-3.238 10.844-1.832 20.564-2.824 21.6-2.204 1.037.62 32.279 24.046 69.428 52.057l67.543 50.93 147.305-34.215c81.017-18.819 147.784-34.695 148.369-35.28.586-.586 11.327-144.406 23.869-319.602 12.542-175.195 23.021-318.728 23.287-318.961.266-.233 15.964-3.225 34.884-6.648l34.4-6.224v-81.309L710.269 98.965l-130.53-58.863-32.487-4.855-32.487-4.855-16.41-15.196C489.33 6.838 481.327.064 480.573.142 479.818.22 412.6 12.083 331.2 26.504M472.8 46.4c1.593 1.76 2.236 3.2 1.43 3.2-2.746 0-238.103 42.396-253.83 45.723-3.983.843-4.4.503-4.395-3.596l.005-4.527 122.795-21.809c67.537-11.995 124.663-21.895 126.947-22 2.318-.107 5.431 1.223 7.048 3.009m-98.429 106.343c33.607 18.071 62.501 32.857 64.209 32.857 1.708 0 52.924-8.309 113.812-18.465 60.889-10.156 112.17-18.256 113.958-18 4.11.588 5.271 6.854 1.535 8.288-1.477.566-54.403 9.656-117.615 20.199L435.34 196.79l-70.382-37.813c-38.711-20.797-70.752-38.774-71.202-39.949-.451-1.174.272-3.227 1.606-4.561 2.941-2.941-2.932-5.786 79.009 38.276M325.273 196l84.296 46.4.016 12.4c.008 6.82-.362 12.4-.822 12.4-.461 0-42.165-23.75-92.676-52.778-50.511-29.027-93.694-53.623-95.963-54.656-3.848-1.754-4.124-2.613-4.124-12.842v-10.963l12.488 6.819c6.869 3.751 50.422 27.7 96.785 53.22m476-1.2-.473 10.8-32 6.051C736.067 217.84 431.985 273.6 430.964 273.6c-.31 0-.564-6.394-.564-14.209v-14.21l17.2-2.668c9.46-1.468 92.44-15.178 184.4-30.467 91.96-15.29 167.773-27.855 168.473-27.922.7-.068 1.06 4.736.8 10.676m-470.691 50.885c67.522 38.816 88.742 50.311 91.818 49.737 103.623-19.342 307.385-55.77 308.078-55.078.801.802-42.446 617.101-43.405 618.55-.57.86-242.413 56.704-242.918 56.091-.265-.322-3.467-120.767-7.116-267.656-6.047-243.455-6.874-267.337-9.355-270.078-4.047-4.472-13.482-3.316-15.894 1.949-1.398 3.052-.372 60.887 4.328 244 3.388 132 6.187 249.509 6.221 261.132l.061 21.132-50-37.673c-27.5-20.72-52.683-39.949-55.963-42.732L310.475 820l2.358-9.6c3.465-14.108 2.192-62.377-2.132-80.8-6.532-27.832-17.152-52.973-28.755-68.075l-6.204-8.074-17.113-226.326C241.435 199.708 241.115 195.2 242.182 195.2c.32 0 40.1 22.718 88.4 50.485m-51.326 444.834c9.491 18.711 14.446 35.738 17.831 61.276 2.702 20.376 2.034 46.52-1.459 57.157-1.881 5.73-2.592 6.271-9.825 7.482-4.288.719-8.083 1.02-8.433.67-.35-.35.137-7.572 1.082-16.047 3.8-34.076-5.298-82.385-21.559-114.473-2.369-4.676-4.08-8.719-3.801-8.983.906-.86 14.86-3.65 16.508-3.302.88.186 5.225 7.485 9.656 16.22m-38.086 1.824c6.903 12.582 13.908 33.101 17.479 51.197 2.995 15.179 3.977 56.066 1.669 69.551l-1.281 7.491-8.319 1.434c-8.137 1.402-8.453 1.309-14.529-4.291-22.085-20.355-35.834-95.644-22.704-124.324 2.718-5.936 4.999-8.721 7.599-9.279 2.044-.439 5.156-1.109 6.916-1.491 6.159-1.334 7.756-.156 13.17 9.712m-24.158 36.104c-10.504 7.681-2.068 44.732 9.671 42.471 4.898-.943 7.132-7.619 6.419-19.189-.977-15.89-9.444-28.141-16.09-23.282"/>
</svg>
