<svg viewBox="0 0 960 960" fill="currentColor" width="960" height="960" xmlns="http://www.w3.org/2000/svg" xmlns:xlink="http://www.w3.org/1999/xlink">
    <path d="M332.8 26.447c-80.52 14.391-148.74 26.601-151.6 27.132l-5.2.966v127.637l11.986 6.819c10.106 5.75 12.108 7.586 12.769 11.709 2.416 15.085 29.268 390.534 27.987 391.326-1.47.909-32.581 6.903-45.982 8.86-43.681 6.378-58.819 101.192-29.936 187.505 15.952 47.671 42.928 80.399 66.27 80.399 3.533 0 19.78-2.16 36.106-4.8 16.326-2.64 29.945-4.8 30.264-4.8.319 0 32.666 24.417 71.882 54.26l71.302 54.26 147.676-34.508c81.222-18.979 147.979-34.759 148.349-35.066.369-.307 10.937-145.007 23.483-321.555 12.546-176.549 23.403-321.531 24.127-322.183.725-.651 16.077-3.871 34.117-7.154 18.04-3.283 33.34-6.301 34-6.706.66-.405 1.18-18.874 1.154-41.042l-.045-40.306-131.555-59.564L578.4 40.072l-31.592-4.659-31.592-4.66-12.408-11.214c-6.824-6.168-14.154-13.087-16.287-15.376-2.133-2.29-4.653-4.1-5.6-4.023-.947.077-67.601 11.915-148.121 26.307m139.874 19.814c3.324 3.672 9.003 2.336-68.674 16.161-29.92 5.325-83.363 15.059-118.763 21.63C249.838 90.624 219.778 96 218.437 96c-1.521 0-2.437-1.476-2.437-3.927 0-3.271 1.004-4.118 6-5.061 23.492-4.435 243.324-43.569 245.352-43.677 1.404-.074 3.799 1.243 5.322 2.926m60.126 27.33 34.4 5.237 100.454 45.598c55.25 25.08 100.216 45.837 99.926 46.128-.291.29-78.132 13.466-172.979 29.279L422.15 228.584l-99.874-55.492c-54.931-30.521-99.875-55.866-99.875-56.323-.001-.457 26.819-5.784 59.599-11.838 155.982-28.806 205.638-37.54 210.8-37.077 3.08.276 21.08 2.858 40 5.737m-238.292 43.008c-1.215 2.269-.936 3.573 1.143 5.361 1.512 1.3 33.492 18.984 71.066 39.299l68.318 36.936 114.882-19.093c63.186-10.501 115.963-19.714 117.283-20.472 3.812-2.19 2.952-7.352-1.326-7.958-2.049-.29-54.609 7.909-116.8 18.221L436 187.641l-68-37.008c-37.4-20.354-68.875-37.013-69.944-37.02-1.069-.007-2.666 1.336-3.548 2.986m19.547 74.601 95.416 52.8.064 13.132.065 13.131-30-17.357c-16.5-9.547-59.88-34.661-96.4-55.808l-66.4-38.45-.477-10.683c-.262-5.875.152-10.431.92-10.124.767.307 44.333 24.319 96.812 53.359m487.545 4.85c0 6.901-.679 10.701-2 11.187-3.855 1.42-363.314 67.963-367.129 67.963-1.728 0-2.097-2.968-1.733-13.942l.462-13.942 183.2-30.691c100.76-16.881 184.1-30.767 185.2-30.858 1.413-.118 2 2.901 2 10.283m-472.571 50.647c47.394 27.444 87.684 50.187 89.532 50.541 1.849.354 72.628-12.1 157.288-27.677 84.659-15.576 154.298-27.947 154.754-27.492.455.456-9.125 141.052-21.29 312.436l-22.118 311.607-121.56 28.448c-66.858 15.646-121.649 28.311-121.756 28.144-.107-.167-3.17-121.624-6.806-269.904l-6.611-269.6-4.12-3.6c-5.273-4.607-7.951-4.537-12.824.337-3.877 3.877-3.924 4.248-3.057 24.4 1.707 39.716 12.081 481.443 11.613 494.506l-.474 13.243-56-42.619c-30.8-23.441-57.259-43.508-58.799-44.593-2.653-1.871-2.625-2.63.546-14.624 4.77-18.046 5.945-58.801 2.416-83.85-5.032-35.715-16.017-69.68-29.808-92.157L273.18 623.2l-15.74-208c-15.543-205.393-16.448-218.4-15.211-218.4.346 0 39.406 22.454 86.8 49.897M258.204 637.2c18.215 28.527 29.552 65.281 32.862 106.542 2.435 30.352-2.171 69.878-8.72 74.835-2.154 1.631-18.342 4.36-19.427 3.276-.258-.258.536-5.461 1.764-11.561 10.055-49.965-2.772-124.751-28.815-168-3.038-5.044-5.25-9.443-4.916-9.777.815-.815 13.744-3.321 18.268-3.54 2.707-.131 4.973 1.944 8.984 8.225m-45.262 6.4c21.89 30 36.888 89.444 34.615 137.2-.849 17.838-4.839 40.538-7.768 44.193-2.468 3.079-14.326 3.818-19.374 1.208-5.518-2.854-17.161-20.38-23.617-35.55-12.847-30.19-18.348-61.767-17.184-98.642 1.274-40.366 7.473-54.608 23.976-55.083 3.391-.097 5.519 1.421 9.352 6.674m-22.293 61.247c-8.733 11.102-3.885 40.307 8.187 49.32 3.675 2.743 4.566 2.858 6.938.89 10.491-8.7 8.539-37.064-3.37-48.973-6.348-6.348-7.629-6.483-11.755-1.237"/>
</svg>
