<svg viewBox="0 0 960 960" fill="currentColor" width="960" height="960" xmlns="http://www.w3.org/2000/svg" xmlns:xlink="http://www.w3.org/1999/xlink">
    <path d="M331.2 26.504c-81.4 14.422-149.62 26.612-151.6 27.089l-3.6.868V180.52l11.982 6.94c9.959 5.768 12.114 7.75 12.767 11.74.625 3.814 47.299 619.535 47.261 623.455-.005.58 40.642 31.736 90.328 69.235l90.339 68.18 147.309-34.216c81.021-18.819 147.789-34.696 148.374-35.281.586-.586 11.327-144.406 23.869-319.602 12.542-175.195 23.021-318.728 23.287-318.961.266-.233 15.964-3.225 34.884-6.648l34.4-6.224v-81.309L710.269 98.965l-130.53-58.863-32.487-4.855-32.487-4.855-16.41-15.196C489.33 6.838 481.327.064 480.573.142 479.818.22 412.6 12.083 331.2 26.504M472.8 46.4c1.593 1.76 2.236 3.2 1.43 3.2-2.746 0-238.103 42.396-253.83 45.723-3.983.843-4.4.503-4.395-3.596l.005-4.527 122.795-21.809c67.537-11.995 124.663-21.895 126.947-22 2.318-.107 5.431 1.223 7.048 3.009m24.505 20.637c1.482.791 18.028 3.691 36.769 6.444l34.074 5.006 100.159 45.145c87.91 39.623 99.592 45.294 95.526 46.373-4.789 1.27-333.265 55.48-339.133 55.968-1.815.152-48.412-24.531-103.549-54.849-80.281-44.144-99.541-55.344-96.7-56.228 2.97-.925 91.519-17.073 238.749-43.54 16.72-3.006 30.627-5.53 30.905-5.61.278-.08 1.718.501 3.2 1.291m-201.943 47.43c-1.334 1.334-2.057 3.387-1.606 4.561.45 1.175 32.491 19.152 71.202 39.949l70.382 37.813 114.93-19.168c63.212-10.543 116.138-19.633 117.615-20.199 3.736-1.434 2.575-7.7-1.535-8.288-1.788-.256-53.069 7.844-113.958 18C491.504 177.291 440.288 185.6 438.58 185.6c-1.708 0-30.602-14.786-64.209-32.857-81.941-44.062-76.068-41.217-79.009-38.276M325.273 196l84.296 46.4.016 12.4c.008 6.82-.362 12.4-.822 12.4-.461 0-42.165-23.75-92.676-52.778-50.511-29.027-93.694-53.623-95.963-54.656-3.848-1.754-4.124-2.613-4.124-12.842v-10.963l12.488 6.819c6.869 3.751 50.422 27.7 96.785 53.22m476-1.2-.473 10.8-32 6.051C736.067 217.84 431.985 273.6 430.964 273.6c-.31 0-.564-6.394-.564-14.209v-14.21l17.2-2.668c9.46-1.468 92.44-15.178 184.4-30.467 91.96-15.29 167.773-27.855 168.473-27.922.7-.068 1.06 4.736.8 10.676m-470.691 50.885c67.522 38.816 88.742 50.311 91.818 49.737 103.623-19.342 307.385-55.77 308.078-55.078.801.802-42.446 617.101-43.405 618.55-.57.86-242.413 56.704-242.918 56.091-.265-.322-3.467-120.767-7.116-267.656-6.047-243.455-6.874-267.337-9.355-270.078-4.047-4.472-13.482-3.315-15.894 1.949-1.399 3.053-.364 61.204 4.371 245.6 3.412 132.88 6.032 250.268 5.822 260.863l-.383 19.263-67.2-50.753c-62.872-47.486-67.232-51.096-67.691-56.064-1.365-14.778-45.109-595.644-45.109-598.995 0-2.153.262-3.914.582-3.914.32 0 40.1 22.718 88.4 50.485"/>
</svg>
