<svg viewBox="0 0 960 960" width="960" height="960" xmlns="http://www.w3.org/2000/svg" xmlns:xlink="http://www.w3.org/1999/xlink">
    <path d="M76.551 15.008c-22.309 8.054-38.278 27.281-40.876 49.215-.795 6.715-2.366 10.143-7.578 16.543-11.94 14.659-14.233 22.247-14.998 49.634-.369 13.2.169 140.261 1.194 282.357l1.866 258.357 7.52 14.366c4.939 9.433 10.811 17.688 17.102 24.043l9.581 9.677.03 28.8c.027 25.492.414 29.736 3.371 36.951 7.624 18.602 20.765 31.438 38.397 37.504 14.365 4.942 15.158 6.124 11.463 17.07-2.332 6.906-2.851 11.61-2.162 19.582.499 5.771 1.493 20.933 2.21 33.693 1.147 20.413 1.826 24.285 5.651 32.229 11.417 23.707 36.588 34.859 78.678 34.859 42.761 0 68.801-11.256 80.27-34.697 3.923-8.018 4.556-11.546 5.511-30.725.593-11.916 1.858-24.546 2.811-28.066 2.589-9.567 2.176-17.409-1.491-28.294-2.72-8.074-2.931-10.156-1.2-11.857 2.306-2.267 35.36-6.342 38.034-4.689.916.566 1.665 1.936 1.665 3.044 0 6.039 5.653 19.388 11.162 26.357 4.492 5.683 9.359 9.476 16.955 13.216 9.569 4.711 11.982 5.225 23.669 5.048 7.158-.109 134.598-8.571 283.2-18.804 298.921-20.584 279.843-18.553 294.36-31.331 4.001-3.522 9.158-10.254 11.46-14.96 8.717-17.816 12.653 1.511-59.155-290.53-35.81-145.64-66.466-267.894-68.124-271.676-1.658-3.782-4.532-8.805-6.387-11.163-4.779-6.076-17.145-14.531-23.92-16.356-3.562-.959-85.661-1.583-215.628-1.64l-209.877-.092-1.892-5.937c-1.155-3.624-2.3-24.01-2.939-52.336-.946-41.885-1.373-47.213-4.393-54.751-3.477-8.677-13.681-23.779-16.762-24.806-.973-.324-2.363-4.935-3.09-10.245-.726-5.311-2.774-13.047-4.551-17.192-4.403-10.272-17.314-23.488-28.463-29.134L300 13.6l-108.8-.352c-86.789-.281-109.983.075-114.649 1.76m217.502 40.289c5.074 3.554 8.347 10.7 8.347 18.224V80H75.2v-6.479c0-3.564 1.089-8.586 2.42-11.16 5.025-9.717 1.606-9.427 112.024-9.497 88.862-.056 101.268.233 104.409 2.433m20.66 47.033c10.257 6.254 10.832 8.494 11.405 44.394l.518 32.476H52.8l.002-30.8c.003-34.597 1.044-38.894 11.035-45.568l5.436-3.632 120.164.006c116.283.006 120.328.107 125.276 3.124M328 202.908c0 1.6 1.423 8.26 3.162 14.8 1.74 6.541 3.18 12.432 3.2 13.092.021.66-4.175 1.2-9.323 1.2-18.277 0-28.919 6.553-44.862 27.622-6.15 8.128-16.966 21.978-24.035 30.778-13.937 17.349-17.742 25.61-17.742 38.516 0 4.591 19.016 106.162 42.257 225.715 23.242 119.553 42.502 219.16 42.8 221.35l.543 3.981-18.4.701c-32.066 1.223-36.033.888-45.739-3.861-12.075-5.908-17.017-13.167-21.507-31.591-6.806-27.93-9.208-34.175-15.145-39.389-3.056-2.683-8.268-5.632-11.582-6.553-3.315-.922-29.427-3.871-58.027-6.554-57.75-5.418-80.737-8.582-85.626-11.785-1.799-1.179-5.184-4.93-7.522-8.336L56.2 666.4l-1.7-191.223c-.935-105.173-1.7-210.113-1.7-233.2V200h137.6c131.931 0 137.6.12 137.6 2.908m454.755 53.975c3.276 2.147 7.07 6.058 8.432 8.691 2.746 5.31 3.503 8.378 65.812 266.426 33.522 138.83 43.869 184.031 43.315 189.229-1 9.384-7.401 18.456-15.94 22.59-6.556 3.174-22.318 4.394-230.905 17.875-123.128 7.958-228.342 14.22-233.809 13.915-8.203-.456-11.001-1.403-16-5.411-3.333-2.673-7.338-7.32-8.899-10.328-3.589-6.913-97.448-469.845-97.387-480.334.061-10.671 6.14-20.152 16.301-25.425 3.325-1.726 45.936-2.022 233.596-1.621l229.529.489 5.955 3.904m-418.399 10.379c-14.036 2.36-27.648 12.916-34.997 27.138-7.888 15.266-8.599 10.736 35.385 225.6 22.067 107.8 41.226 199.363 42.575 203.473 2.937 8.945 12.884 20.707 22.039 26.062 13.748 8.041 7.561 8.178 210.233-4.663 103.625-6.566 192.729-12.36 198.009-12.877 18.334-1.794 35.159-13.921 42.888-30.914 6.713-14.76 7.048-13.051-41.847-213.881-28.507-117.089-46.673-188.686-49.212-193.959-6.545-13.595-19.412-22.928-35.929-26.06-10.084-1.912-377.745-1.836-389.144.081m398.296 24.868c3.381 2.712 7.426 7.392 8.989 10.4 1.562 3.009 23.026 88.63 47.697 190.27 48.608 200.253 47.423 194.052 39.406 206.167-8.643 13.06 4.123 11.518-206.788 24.98C548.092 730.576 459.579 736 455.261 736c-10.286 0-20.8-5.155-25.686-12.594-3.145-4.789-10.818-40.135-43.806-201.806-21.995-107.8-40.463-198.653-41.039-201.896-1.972-11.106 6.629-26.263 17.64-31.084 3.931-1.721 41.051-2.05 199.482-1.767l194.652.347 6.148 4.93M325.494 527.6c25.442 125.62 47.559 232 49.15 236.4 5.449 15.078 17.003 25.482 33.682 30.331 8.326 2.42 18.523 1.903 233.39-11.841 123.576-7.905 228.644-14.82 233.484-15.367 11.628-1.315 20.616-5.413 29.171-13.299l7.01-6.461 4.435 18.188c4.765 19.535 4.387 23.553-2.416 25.713-1.872.594-126.613 9.576-277.202 19.96-263.427 18.166-273.95 18.774-277.798 16.072-4.988-3.502-1.343 13.878-56.891-271.296-26.309-135.064-43.575-227.322-43.023-229.891.864-4.029 17.685-26.909 19.783-26.909.531 0 21.782 102.78 47.225 228.4m328.354-159.874c-3.474 3.839-3.361 8.733.278 12.026 3.423 3.097 10.009 3.473 12.754.728 3.182-3.182 2.282-10.445-1.636-13.189-4.681-3.279-8.155-3.147-11.396.435m-94.381 1.341c-1.841 1.84-1.161 11.266.933 12.941 4.516 3.613 9.006 3.786 12.318.474 6.4-6.4 2.513-14.482-6.966-14.482-2.87 0-5.699.48-6.285 1.067m-97.149 3.815c-5.339 5.339-1.274 14.318 6.482 14.318 8.041 0 11.347-7.999 5.657-13.689-4.772-4.771-7.838-4.93-12.139-.629m113.383 83c-17.201 6.726-30.737 19.655-36.638 34.995-4.865 12.645-5.875 32.118-2.307 44.469 11.992 41.514 51.9 71.985 90.408 69.031 23.634-1.813 41.635-13.481 51.944-33.67 5.624-11.013 6.382-13.886 6.984-26.487 1.185-24.775-7.017-44.376-26.876-64.236-19.118-19.118-38.074-27.255-63.152-27.109-8.522.049-15.395 1.064-20.363 3.007m49.557 23.365c14.465 7.236 27.45 20.125 34.313 34.058 4.439 9.01 5.313 12.709 5.782 24.479.443 11.123-.065 15.26-2.569 20.921-4.571 10.332-12.047 18.012-21.489 22.074-7.072 3.042-10.392 3.477-22.011 2.883-11.494-.587-15.333-1.541-23.989-5.958-22.279-11.368-38.293-34.266-39.741-56.824-.417-6.503-.294-14.297.273-17.322 1.678-8.942 10.1-20.021 19.181-25.229 7.497-4.3 9.497-4.7 23.577-4.714 14.423-.014 16.091.338 26.673 5.632M126.4 724.288c13.36 2.075 27.723 2.859 52.44 2.864l34.041.007 1.468 5.62c.808 3.092 3 11.741 4.872 19.221 3.555 14.205 8.042 23.305 15.238 30.905 2.345 2.477 3.976 4.793 3.623 5.146-1.943 1.944-65.041 2.536-92.482.869-37.616-2.286-43.225-3.503-49.601-10.766l-4.799-5.465v-55.585l8.4 2.163c4.62 1.19 16.68 3.449 26.8 5.021m106.2 88.899c-1.476 2.853-3.029 10.03-3.453 15.948-.739 10.331-.563 10.997 4.396 16.644 4.228 4.816 4.987 6.769 4.187 10.772-.538 2.69-1.861 5.436-2.94 6.103-6.901 4.265-75.299 5.196-86.79 1.182-8.251-2.883-9.345-8.569-3.32-17.263 4.871-7.029 5.65-20.615 1.72-30.02-1.32-3.159-2.4-6.004-2.4-6.322 0-.318 19.26-.783 42.8-1.032 23.54-.249 44.078-.621 45.641-.826 2.691-.353 2.7-.099.159 4.814m-50.2 72.814c18.04.352 36.94-.025 42-.838 8.386-1.348 9.2-1.22 9.2 1.449 0 4.591-6.152 5.388-41.6 5.388-38.873 0-48-1.116-48-5.869 0-2.528.638-2.988 2.8-2.021 1.54.688 17.56 1.54 35.6 1.891m-3.2 26.881c11 .535 26.66.346 34.8-.42 8.14-.767 14.8-.882 14.8-.257 0 .626-3.78 2.456-8.4 4.066-6.647 2.318-13.243 2.929-31.6 2.929-23.513 0-33.204-1.599-39.249-6.477-2.979-2.403-2.801-2.494 3.249-1.678 3.52.475 15.4 1.301 26.4 1.837" fill-rule="evenodd" fill="currentColor"/>
</svg>
