<svg width="960" height="960" viewBox="0 0 960 960" fill="none" xmlns="http://www.w3.org/2000/svg">
    <style>.i4h-accent{stroke:var(--icon-accent,#1FC855)}</style>
    <path d="m103.19 879.985-17.918-1.07s-5.27 0-5.27-13.912V428.23c0-10.167 4.743-20.869 14.756-22.37 10.013-1.502 144.608-10.273 144.608-10.273 15.283-1.609 20.774-1.919 40.801-1.919 20.026 0 550.857 4.68 562.417 5.132 13.703.535 26.878 5.351 26.878 21.939v414.834c0 14.447-3.162 20.333-10.013 22.474-6.852 2.14-20.027 6.421-20.027 6.421l-3.689 34.245-5.797-34.245h-24.242l-42.688 14.447v9.097s-5.694 10.701-11.594 12.307c-5.901 1.605-33.729 6.956-33.729 6.956l-8.432 42.272-6.324-42.272-584.453-26.755-7.905 39.597-7.379-40.132Z" stroke="currentColor" stroke-width="40"/>
    <path stroke="currentColor" stroke-width="20" d="M728.719 407.559v494.076M80.327 698.634l648.221 21.081M324.996 845.255l137.023 6.324M324.844 672.003l137.022 4.216M725.851 719.994l151.779-36.891M734.537 418.445l143.259-13.37M728.063 423.807l-648.222-9.736M728.018 517.84 79.796 505.192"/>
    <path d="M772.482 705.246v-35.31c0-5.27 1.054-9.261 10.014-10.843 8.959-1.581 70.619-14.23 70.619-14.23" stroke="currentColor" stroke-width="10"/>
    <path d="m770.89 443.703-10 1.016v-23.31h10v22.294Zm13.702-1.391-10 1.015v-25.08h10v24.065Zm13.702-1.392-10 1.016v-25.797h10v24.781Zm13.703-1.392-10 1.016v-28.621h10v27.605Zm13.702-1.391-10 1.015v-31.445h10v30.43Zm13.972-1.419-10 1.015v-34.244h10v33.229Zm13.702-1.392-10 1.016v-37.069h10v36.053ZM651.708 452.546l-.126 9.999-32.683-.411-.148-10.003 32.957.415Zm-56.152-.705.148 10.001-34.794-.437-.147-10.002 34.793.438Zm-57.989-.73.148 10.003-282.559-3.549-.147-10.003 282.558 3.549Zm-305.754-3.84.148 10.002-30.576-.384-.148-10.002 30.576.384Zm-53.771-.675.147 10.002-29.52-.371.126-9.999 29.247.368Z" fill="currentColor"/>
    <path class="i4h-accent" stroke="#1FC855" stroke-width="20" stroke-linecap="round" d="m260.941 451.733 271.045 4.057"/>
</svg>
