<svg width="960" height="960" viewBox="0 0 960 960" fill="none" xmlns="http://www.w3.org/2000/svg">
<path d="M701.561 41C732.351 41.0002 762 72.4096 762 104.512C762 136.615 762 742.397 762 790.72C762 839.043 727.5 847.785 697 855.958" stroke="black" stroke-width="10" stroke-linecap="round"/>
<path d="M446.201 71C420.833 70.9998 231.277 71.994 206.889 71.9939C182.501 71.9939 174.711 98.2963 175.008 114.077C175.306 129.858 177.685 776.598 177.685 816.703C177.685 856.808 200.933 863.838 224.081 865.736L435.444 878.805C455.489 879.842 489 878.337 489 832.664V113.356C489 81.1599 471.569 71.0002 446.201 71Z" stroke="black" stroke-width="20"/>
<ellipse cx="789.809" cy="569.104" rx="11.8891" ry="26.4629" fill="black"/>
<path d="M207 114C209.761 114 212 116.239 212 119V830C212 832.761 209.761 835 207 835C204.239 835 202 832.761 202 830V119C202 116.239 204.239 114 207 114ZM232 112C234.761 112 237 114.239 237 117V830C237 832.761 234.761 835 232 835C229.239 835 227 832.761 227 830V117C227 114.239 229.239 112 232 112ZM257 112C259.761 112 262 114.239 262 117V830C262 832.761 259.761 835 257 835C254.239 835 252 832.761 252 830V117C252 114.239 254.239 112 257 112ZM287 685.834V830C287 832.761 284.761 835 282 835C279.239 835 277 832.761 277 830V685.235L287 685.834ZM312 687.33V830C312 832.761 309.761 835 307 835C304.239 835 302 832.761 302 830V686.731L312 687.33ZM337 688.826V830C337 832.761 334.761 835 332 835C329.239 835 327 832.761 327 830V688.228L337 688.826ZM362 690.322V830C362 832.761 359.761 835 357 835C354.239 835 352 832.761 352 830V689.724L362 690.322ZM387 691.818V830C387 832.761 384.761 835 382 835C379.239 835 377 832.761 377 830V691.221L387 691.818ZM407 108C409.761 108 412 110.239 412 113V830C412 832.761 409.761 835 407 835C404.239 835 402 832.761 402 830V113C402 110.239 404.239 108 407 108ZM432 108C434.761 108 437 110.239 437 113V830C437 832.761 434.761 835 432 835C429.239 835 427 832.761 427 830V113C427 110.239 429.239 108 432 108ZM457 107C459.761 107 462 109.239 462 112V830C462 832.761 459.761 835 457 835C454.239 835 452 832.761 452 830V112C452 109.239 454.239 107 457 107ZM382 110C384.761 110 387 112.239 387 115V641.432L377 640.833V115C377 112.239 379.239 110 382 110ZM357 111C359.761 111 362 113.239 362 116V639.936L352 639.337V116C352 113.239 354.239 111 357 111ZM332 453C334.761 453 337 455.239 337 458V638.439L327 637.841V458C327 455.239 329.239 453 332 453ZM307 107C309.761 107 312 109.239 312 112V636.943L302 636.345V112C302 109.239 304.239 107 307 107ZM282 109C284.761 109 287 111.239 287 114V635.447L277 634.849V114C277 111.239 279.239 109 282 109ZM332 224C336.418 224 340 227.582 340 232V425C340 429.418 336.418 433 332 433C327.582 433 324 429.418 324 425V232C324 227.582 327.582 224 332 224Z" fill="black"/>
<path d="M175 104L488 102V122L175 124V104Z" fill="black"/>
<path d="M262.473 917.46C327.164 921.332 416.952 926.572 449.247 928.327C460.371 928.931 471.472 928.846 482.613 928.846L487.215 928.327V936.131L476.86 938.432H464.971L449.247 936.131V928.327M262.473 917.46C247.827 916.583 234.468 915.776 223.354 915.096C207.521 914.127 187.954 912.294 184 912C163.29 910.465 132.459 888.191 132.459 841.403C132.459 794.615 129.008 123.374 129.008 88.9374C129.008 54.5005 160 25.2731 194.948 25.2731C229.897 25.2731 432.756 23.3553 463.821 23.3555C463.821 23.3555 720.395 26.0386 764.883 27.1892C809.372 28.3397 831.999 71.6775 831.999 98.9074C831.999 126.137 830.465 745.905 830.465 779.272C830.465 812.638 807.837 839.484 781.375 846.771C681.804 874.189 582.2 901.488 482.613 928.846M223.354 915.096V924.941L229.873 926.475L257.103 925.708L262.473 924.941V917.46" stroke="black" stroke-width="40"/>
<path d="M180 814L483 833V853L180 834V814Z" fill="black"/>
<path d="M210.46 33H452C490.66 33 522 64.3401 522 103V847.748C522 887.994 488.144 919.951 447.965 917.631L201.478 903.399C164.264 901.25 135.262 870.316 135.515 833.042L140.462 102.526C140.722 64.0523 171.985 33 210.46 33Z" stroke="black" stroke-width="20"/>
</svg>
