<svg viewBox="0 0 960 960" fill="currentColor" width="960" height="960" xmlns="http://www.w3.org/2000/svg" xmlns:xlink="http://www.w3.org/1999/xlink">
<path d="M336.204 136.591C352.496 125.977 371.786 120.925 391.189 122.191L774.689 165.432C800.46 167.113 820.5 188.505 820.5 214.33V773.633C820.5 800.025 799.635 821.543 773.5 822.593V827.99C773.5 833.316 760.069 837.633 743.5 837.633H742.51C726.4 837.46 713.5 833.21 713.5 827.99V822.633H406V826.99C406 832.263 392.836 836.547 376.496 836.632L376 836.633L375.01 836.628C358.9 836.46 346 832.21 346 826.99V820.595L219.678 798.621C217.801 802.496 207.956 805.477 195.944 805.626L195 805.632L194.103 805.627C180.712 805.469 170 801.79 170 797.275V788.721C152.149 781.221 140 763.609 140 743.548V290.972C140 282.817 142.035 274.792 145.921 267.622C149.807 260.453 155.42 254.367 162.253 249.916L336.204 136.59V136.591ZM374.564 181.397C374.549 181.713 374.542 182.03 374.542 182.347V763.434C374.542 772.527 380.609 780.202 388.916 782.632H703.232V200.856L393.074 162.399C383.121 163.119 375.051 171.179 374.564 181.397ZM723.232 202.161V782.632H771.5C773.841 782.632 776.09 781.72 777.769 780.089C779.449 778.459 780.427 776.238 780.496 773.898L780.5 773.632V435.01L770.975 434.238C768.939 434.073 767.039 433.147 765.654 431.645C764.269 430.143 763.5 428.175 763.5 426.132C763.5 425.177 763.698 424.232 764.081 423.357C764.465 422.482 765.025 421.695 765.728 421.048C766.43 420.4 767.259 419.905 768.162 419.593C769.065 419.282 770.023 419.161 770.975 419.238L780.5 420.01V392.01L770.975 391.238C768.939 391.073 767.039 390.147 765.654 388.645C764.269 387.143 763.5 385.175 763.5 383.132C763.5 382.177 763.698 381.232 764.081 380.357C764.465 379.482 765.025 378.695 765.728 378.048C766.43 377.4 767.259 376.905 768.162 376.593C769.065 376.282 770.023 376.161 770.975 376.238L780.5 377.01V349.01L770.975 348.238C768.939 348.073 767.039 347.147 765.654 345.645C764.269 344.143 763.5 342.175 763.5 340.132C763.5 339.177 763.698 338.232 764.081 337.357C764.465 336.482 765.025 335.695 765.728 335.048C766.43 334.4 767.259 333.905 768.162 333.593C769.065 333.282 770.023 333.161 770.975 333.238L780.5 334.01V306.01L770.975 305.238C768.939 305.073 767.039 304.147 765.654 302.645C764.269 301.143 763.5 299.175 763.5 297.132C763.5 296.177 763.698 295.232 764.081 294.357C764.465 293.482 765.025 292.695 765.728 292.048C766.43 291.4 767.259 290.905 768.162 290.593C769.065 290.282 770.023 290.161 770.975 290.238L780.5 291.01V263.01L770.975 262.238C768.939 262.073 767.039 261.147 765.654 259.645C764.269 258.143 763.5 256.175 763.5 254.132C763.5 253.177 763.698 252.232 764.081 251.357C764.465 250.482 765.025 249.695 765.728 249.048C766.43 248.4 767.259 247.905 768.162 247.593C769.065 247.282 770.023 247.161 770.975 247.238L780.5 248.01V214.329C780.5 212.089 779.665 209.929 778.157 208.272C776.649 206.615 774.578 205.58 772.348 205.369L772.086 205.348L723.232 202.161ZM356.062 171.394L184.086 283.431C182.831 284.248 181.8 285.366 181.087 286.683C180.373 287.999 179.999 289.473 179.999 290.971V743.548C179.999 745.667 180.747 747.719 182.111 749.341C183.476 750.963 185.369 752.052 187.457 752.415L354.361 781.449C355.958 781.727 357.562 781.956 359.173 782.136C356.121 776.375 354.531 769.953 354.541 763.434V182.347C354.54 178.643 355.052 174.957 356.062 171.394ZM738.5 701.051C738.636 701.051 738.773 701.054 738.909 701.06L764.909 702.242C767.223 702.347 769.407 703.34 771.007 705.015C772.607 706.689 773.5 708.916 773.5 711.232V744.632C773.5 747.019 772.552 749.308 770.864 750.996C769.176 752.684 766.887 753.632 764.5 753.632H738.5C736.113 753.632 733.824 752.684 732.136 750.996C730.448 749.308 729.5 747.019 729.5 744.632V710.051C729.5 707.664 730.448 705.375 732.136 703.687C733.824 701.999 736.113 701.051 738.5 701.051ZM444.488 204.579L643.171 225.066C658.856 226.204 671 239.261 671 254.987V719.632C671 736.201 657.568 749.632 641 749.632H442.316C425.747 749.632 412.316 736.201 412.316 719.632V234.5C412.316 233.776 412.342 233.051 412.395 232.329L412.435 231.834C413.882 215.556 428.128 203.392 444.488 204.579ZM442.075 264.216L442.045 264.552C442.007 265.045 441.988 265.539 441.988 266.034V679.896C441.988 690.389 450.495 698.896 460.988 698.896H519.988C530.481 698.896 538.988 690.389 538.988 679.896V270.65C538.988 260.732 531.358 252.482 521.47 251.708L462.47 247.092C452.121 246.282 443.061 253.924 442.075 264.216ZM557.075 274.221L557.045 274.564C557.007 275.068 556.988 275.573 556.988 276.079V677.896C556.988 688.942 565.942 697.896 576.988 697.896H620.988C632.034 697.896 640.988 688.942 640.988 677.896V279.421C640.988 268.963 632.931 260.271 622.503 259.478L578.503 256.136C567.603 255.308 558.084 263.379 557.075 274.221ZM737.5 593.964C737.607 593.964 737.715 593.967 737.822 593.973L752.822 594.78C754.355 594.862 755.798 595.529 756.855 596.644C757.911 597.758 758.5 599.235 758.5 600.77V653.405C758.5 654.996 757.868 656.522 756.743 657.648C755.617 658.773 754.091 659.405 752.5 659.405L752.278 659.401L737.278 658.845C735.726 658.788 734.257 658.131 733.18 657.013C732.102 655.895 731.5 654.403 731.5 652.85V599.964C731.5 598.373 732.132 596.847 733.257 595.721C734.383 594.596 735.909 593.964 737.5 593.964ZM494.988 589.632C502.168 589.632 507.988 596.124 507.988 604.132C507.988 612.14 502.168 618.632 494.988 618.632C487.808 618.632 481.988 612.14 481.988 604.132C481.988 596.124 487.808 589.632 494.988 589.632ZM602.488 589.632C609.392 589.632 614.988 596.124 614.988 604.132C614.988 612.14 609.392 618.632 602.488 618.632C595.584 618.632 589.988 612.14 589.988 604.132C589.988 596.124 595.584 589.632 602.488 589.632Z" fill-rule="evenodd" />
</svg>
