<svg width="960" height="960" viewBox="0 0 960 960" fill="none" xmlns="http://www.w3.org/2000/svg">
<path d="M664.627 292.793C682.016 299.601 695.346 310.838 703.029 323.05C710.713 335.265 712.438 347.792 708.323 358.301C704.208 368.811 694.436 376.837 680.501 380.587C666.569 384.336 649.152 383.534 631.764 376.726C614.375 369.918 601.045 358.681 593.362 346.469C585.678 334.254 583.953 321.726 588.068 311.217C592.183 300.708 601.955 292.682 615.89 288.932C629.822 285.183 647.238 285.985 664.627 292.793Z" stroke="black" stroke-width="20"/>
<path d="M739.311 412.188C752.148 408.748 766.99 417.162 771.271 433.141C775.553 449.121 766.907 463.828 754.069 467.268C741.232 470.708 726.391 462.294 722.109 446.314C717.827 430.335 726.473 415.628 739.311 412.188Z" stroke="black" stroke-width="20"/>
<mask id="path-3-inside-1_158_95" fill="white">
<ellipse cx="609.138" cy="421.976" rx="17.3768" ry="18.8784" transform="rotate(-15 609.138 421.976)"/>
</mask>
<path d="M625.922 417.479L606.604 422.655C606.66 422.864 606.558 422.766 606.742 422.415C606.838 422.232 607.034 421.941 607.403 421.635C607.79 421.315 608.292 421.042 608.848 420.893L614.024 440.211L619.2 459.53C640.616 453.791 650.386 431.504 645.241 412.302L625.922 417.479ZM614.024 440.211L608.848 420.893C609.403 420.744 609.975 420.729 610.469 420.814C610.942 420.894 611.258 421.048 611.432 421.159C611.767 421.371 611.728 421.506 611.672 421.297L592.353 426.473L573.035 431.65C578.18 450.851 597.785 465.268 619.2 459.53L614.024 440.211ZM592.353 426.473L611.672 421.297C611.616 421.088 611.717 421.186 611.534 421.537C611.438 421.72 611.241 422.011 610.872 422.317C610.486 422.637 609.984 422.91 609.428 423.059L604.252 403.741L599.075 384.422C577.66 390.161 567.89 412.448 573.035 431.65L592.353 426.473ZM604.252 403.741L609.428 423.059C608.872 423.208 608.301 423.223 607.806 423.139C607.334 423.058 607.018 422.904 606.843 422.793C606.509 422.582 606.548 422.446 606.604 422.655L625.922 417.479L645.241 412.302C640.096 393.101 620.491 378.684 599.075 384.422L604.252 403.741Z" fill="black" mask="url(#path-3-inside-1_158_95)"/>
<mask id="path-5-inside-2_158_95" fill="white">
<ellipse cx="728.738" cy="563.042" rx="17.3768" ry="18.8784" transform="rotate(-15 728.738 563.042)"/>
</mask>
<path d="M745.522 558.545L726.204 563.721C726.26 563.93 726.158 563.833 726.342 563.482C726.437 563.299 726.634 563.008 727.003 562.701C727.389 562.381 727.892 562.108 728.447 561.959L733.624 581.278L738.8 600.596C760.216 594.858 769.986 572.57 764.841 553.369L745.522 558.545ZM733.624 581.278L728.447 561.959C729.003 561.81 729.575 561.796 730.069 561.88C730.542 561.961 730.858 562.114 731.032 562.225C731.367 562.437 731.327 562.572 731.272 562.363L711.953 567.54L692.634 572.716C697.78 591.918 717.385 606.334 738.8 600.596L733.624 581.278ZM711.953 567.54L731.272 562.363C731.216 562.155 731.317 562.252 731.134 562.603C731.038 562.786 730.841 563.077 730.472 563.383C730.086 563.704 729.584 563.977 729.028 564.126L723.852 544.807L718.675 525.489C697.26 531.227 687.489 553.515 692.634 572.716L711.953 567.54ZM723.852 544.807L729.028 564.126C728.472 564.275 727.901 564.289 727.406 564.205C726.934 564.124 726.617 563.97 726.443 563.86C726.109 563.648 726.148 563.513 726.204 563.721L745.522 558.545L764.841 553.369C759.696 534.167 740.091 519.75 718.675 525.489L723.852 544.807Z" fill="black" mask="url(#path-5-inside-2_158_95)"/>
<path d="M635.738 586.715C650.527 582.753 664.696 583.644 675.525 587.806C686.366 591.973 693.155 599.044 695.359 607.272C697.564 615.5 695.22 625.017 687.915 634.046C680.618 643.066 668.794 650.923 654.004 654.886C639.214 658.849 625.045 657.957 614.215 653.794C603.375 649.627 596.586 642.556 594.381 634.329C592.177 626.101 594.521 616.583 601.825 607.554C609.122 598.534 620.948 590.678 635.738 586.715Z" stroke="black" stroke-width="20"/>
<path d="M565.994 20L565.994 123.213" stroke="black" stroke-width="40" stroke-linecap="round"/>
<path d="M565.994 836.787L565.994 940" stroke="black" stroke-width="40" stroke-linecap="round"/>
<path d="M167.625 250.006L257.011 301.613" stroke="black" stroke-width="40" stroke-linecap="round"/>
<path d="M335.995 81.6318L387.602 171.017" stroke="black" stroke-width="40" stroke-linecap="round"/>
<path d="M335.995 81.6318L387.602 171.017" stroke="black" stroke-width="40" stroke-linecap="round"/>
<path d="M257.011 658.39L167.625 709.996" stroke="black" stroke-width="40" stroke-linecap="round"/>
<path d="M387.601 788.983L335.995 878.369" stroke="black" stroke-width="40" stroke-linecap="round"/>
<path d="M209.214 479.994L106 479.994" stroke="black" stroke-width="40" stroke-linecap="round"/>
<path fill-rule="evenodd" clip-rule="evenodd" d="M540.51 233.707C415.742 246.465 318.404 351.865 318.404 480.001C318.404 608.137 415.742 713.537 540.51 726.295V766.477C393.615 753.578 278.404 630.244 278.404 480.001C278.404 329.758 393.615 206.424 540.51 193.525V233.707Z" fill="black"/>
<path d="M591.479 726.293C716.246 713.535 813.584 608.135 813.584 479.999C813.584 351.863 716.246 246.463 591.479 233.705L591.479 193.523C738.373 206.422 853.584 329.756 853.584 479.999C853.584 630.242 738.373 753.576 591.479 766.475L591.479 726.293Z" fill="black"/>
</svg>
